<svg xmlns="http://www.w3.org/2000/svg" viewBox="0 0 32 40" x="0px" y="0px"><title>pack 8</title><g data-name="account"><path d="M22.72,18.29a9.18,9.18,0,0,0-2.19-1.63,6.09,6.09,0,1,0-9.06,0,8.94,8.94,0,0,0-2.18,1.63A9.38,9.38,0,0,0,6.5,25v.5h19V25A9.41,9.41,0,0,0,22.72,18.29ZM16,7.5a5.09,5.09,0,0,1,3.35,8.92,5.17,5.17,0,0,1-5.13.92,4.73,4.73,0,0,1-1.57-.93h0A5.09,5.09,0,0,1,16,7.5Zm-8.49,17A8.36,8.36,0,0,1,10,19a8.14,8.14,0,0,1,2.24-1.61c.1.08.22.14.32.21s.3.21.46.3.18.08.26.13a6.07,6.07,0,0,0,2.72.67A6,6,0,0,0,18.73,18c.08,0,.16-.07.24-.12s.32-.2.47-.3.22-.13.32-.21a8.5,8.5,0,0,1,4.73,7.12Z"/></g><text x="0" y="47" fill="#000000" font-size="5px" font-weight="bold" font-family="'Helvetica Neue', Helvetica, Arial-Unicode, Arial, Sans-serif">Created by Muhammad Rendi</text><text x="0" y="52" fill="#000000" font-size="5px" font-weight="bold" font-family="'Helvetica Neue', Helvetica, Arial-Unicode, Arial, Sans-serif">from the Noun Project</text></svg>